<?xml version="1.0" standalone="no"?>
<!DOCTYPE svg PUBLIC "-//W3C//DTD SVG 20010904//EN"
 "http://www.w3.org/TR/2001/REC-SVG-20010904/DTD/svg10.dtd">
<svg version="1.0" xmlns="http://www.w3.org/2000/svg"
 width="422.000000pt" height="637.000000pt" viewBox="0 0 422.000000 637.000000"
 preserveAspectRatio="xMidYMid meet">

<g transform="translate(0.000000,637.000000) scale(0.100000,-0.100000)"
fill="#000000" stroke="none">
<path d="M548 5556 c-138 -57 -221 -178 -221 -325 0 -145 71 -259 201 -323 59
-29 76 -33 152 -33 71 0 94 4 142 27 114 53 186 147 209 270 30 161 -60 319
-219 384 -79 32 -185 32 -264 0z"/>
<path d="M375 4721 l-40 -6 -3 -1495 c-2 -1012 1 -1517 8 -1564 18 -118 81
-250 165 -349 117 -137 327 -239 510 -249 l60 -3 3 1138 2 1137 300 0 300 0 2
-1162 3 -1163 23 -70 c46 -137 99 -223 197 -320 68 -69 109 -101 170 -132 101
-52 199 -82 292 -90 l73 -6 2 1469 3 1469 653 3 652 2 0 365 0 365 -1335 0
-1335 0 0 33 c-1 108 -61 264 -145 376 -130 171 -369 278 -560 252z m3087
-777 c25 -8 64 -31 87 -51 128 -109 128 -307 0 -416 -134 -115 -334 -74 -413
85 -59 119 -16 283 91 349 81 50 155 61 235 33z"/>
<path d="M3020 1554 l0 -1557 75 6 c162 14 322 92 445 216 82 82 139 179 182
306 l23 70 3 1258 2 1257 -365 0 -365 0 0 -1556z"/>
</g>
</svg>
